<svg xmlns="http://www.w3.org/2000/svg" viewBox="0 0 1600 900" width="1600" height="900">
  <defs>
    <linearGradient id="bg" x1="0" y1="0" x2="0" y2="1">
      <stop offset="0%" stop-color="#f3f4f7"/>
      <stop offset="100%" stop-color="#eef0f4"/>
    </linearGradient>
    <filter id="blur">
      <feGaussianBlur stdDeviation="0.9"/>
    </filter>
  </defs>

  <rect width="1600" height="900" fill="url(#bg)"/>

  <!-- Parks / green zones -->
  <g fill="#dbead9" opacity="0.75">
    <path d="M0 110 L155 115 L170 245 L35 285 L0 260 Z"/>
    <path d="M1380 70 L1600 40 L1600 210 L1490 280 L1360 220 Z"/>
    <path d="M0 690 L180 650 L210 820 L0 860 Z"/>
    <path d="M1260 650 L1510 610 L1600 700 L1600 860 L1310 840 Z"/>
  </g>

  <!-- Freeways / major roads -->
  <g fill="none" stroke-linecap="round" stroke-linejoin="round">
    <path d="M600 10 C665 210, 730 420, 780 610 C820 740, 865 835, 910 920" stroke="#8ea5c2" stroke-width="16" opacity="0.42"/>
    <path d="M160 115 C360 175, 530 220, 690 250 C875 285, 1130 300, 1500 230" stroke="#90a8c4" stroke-width="10" opacity="0.36"/>
    <path d="M1040 110 C980 250, 950 360, 895 480 C840 600, 825 735, 850 860" stroke="#90a8c4" stroke-width="8" opacity="0.34"/>
  </g>

  <!-- Secondary roads -->
  <g fill="none" stroke="#cfd5df" stroke-width="1.25" opacity="0.97">
    <path d="M100 235 L280 290 L450 295 L620 325 L790 345 L970 355 L1180 390 L1410 365"/>
    <path d="M70 405 L230 420 L390 440 L560 470 L720 470 L900 500 L1110 505 L1320 488 L1540 520"/>
    <path d="M100 615 L260 600 L440 620 L630 650 L820 660 L1020 645 L1210 670 L1435 650"/>
    <path d="M225 95 L210 215 L230 345 L205 500 L245 745"/>
    <path d="M350 110 L335 230 L360 360 L350 530 L390 760"/>
    <path d="M505 130 L490 285 L520 420 L505 575 L545 795"/>
    <path d="M900 120 L880 280 L910 420 L900 560 L935 770"/>
    <path d="M1160 120 L1130 290 L1160 420 L1145 620 L1195 840"/>
    <path d="M1370 140 L1345 300 L1380 430 L1365 640 L1415 860"/>
  </g>

  <!-- Downtown grid near motel -->
  <g fill="none" stroke="#c6ccd7" stroke-width="1.05" opacity="0.9">
    <path d="M690 390 L905 455"/>
    <path d="M680 420 L895 485"/>
    <path d="M670 450 L885 515"/>
    <path d="M660 480 L875 545"/>
    <path d="M650 510 L865 575"/>
    <path d="M740 365 L670 600"/>
    <path d="M790 380 L720 625"/>
    <path d="M840 395 L770 650"/>
    <path d="M890 410 L820 675"/>
  </g>

  <!-- Valley/water hint -->
  <path d="M785 365 C735 450,735 560,785 650 C810 700,810 775,780 855" stroke="#aec0d8" stroke-width="22" opacity="0.34" fill="none" filter="url(#blur)"/>

  <!-- Motel marker -->
  <g transform="translate(905 560)">
    <circle r="15" fill="#d84c4a"/>
    <path d="M0 15 L-9 33 L9 33 Z" fill="#d84c4a"/>
    <circle r="5.8" fill="#fff"/>
  </g>

  <!-- Labels -->
  <g font-family="Inter, Arial, sans-serif" fill="#677186">
    <text x="170" y="240" font-size="28" font-weight="500">Ocean Hills</text>
    <text x="860" y="210" font-size="28" font-weight="500">San Marcos</text>
    <text x="680" y="275" font-size="17">W Mission Ave</text>
    <text x="770" y="365" font-size="17">S Escondido Blvd</text>
    <text x="915" y="332" font-size="17">E Valley Pkwy</text>
    <text x="725" y="420" font-size="30" font-weight="500">Escondido</text>
    <text x="700" y="545" font-size="16">I-15</text>
    <text x="515" y="610" font-size="16">W Valley Pkwy</text>
    <text x="1040" y="618" font-size="16">N Midway Dr</text>
    <text x="1100" y="690" font-size="24" font-weight="500">East Canyon</text>
    <text x="928" y="560" font-size="22" font-weight="600" fill="#4b5570">Motel Mediteran</text>
  </g>
</svg>
